<svg xmlns="http://www.w3.org/2000/svg" viewBox="0 0 400 400" fill="none">
  <defs>
    <linearGradient id="bg-bg" x1="0" y1="0" x2="1" y2="1">
      <stop offset="0" stop-color="#dbeafe"/>
      <stop offset="1" stop-color="#bfdbfe"/>
    </linearGradient>
    <linearGradient id="bg-body" x1="0" y1="0" x2="0" y2="1">
      <stop offset="0" stop-color="#f8fafc"/>
      <stop offset="1" stop-color="#cbd5e1"/>
    </linearGradient>
  </defs>
  <rect width="400" height="400" fill="url(#bg-bg)"/>
  <g transform="translate(220 210) rotate(30)">
    <path d="M-100 -10 Q-120 50 -80 90 Q-40 110 0 95 Q40 85 55 45 L100 -90 L75 -115 L40 -70 Q20 -30 -20 -25 Q-70 -30 -100 -10 Z" fill="url(#bg-body)" stroke="#475569" stroke-width="2.5"/>
    <rect x="78" y="-118" width="90" height="8" fill="#1e293b" transform="rotate(-20 78 -118)"/>
    <rect x="165" y="-150" width="30" height="15" fill="#1e293b" rx="2" transform="rotate(-20 165 -150)"/>
    <rect x="-50" y="15" width="70" height="10" fill="#1e293b"/>
    <rect x="-50" y="35" width="70" height="10" fill="#1e293b"/>
    <circle cx="-60" cy="60" r="5" fill="#64748b"/>
    <circle cx="-45" cy="72" r="5" fill="#64748b"/>
    <g stroke="#94a3b8" stroke-width="1">
      <line x1="-75" y1="-5" x2="90" y2="-90"/>
      <line x1="-78" y1="0" x2="88" y2="-82"/>
      <line x1="-80" y1="5" x2="85" y2="-75"/>
      <line x1="-82" y1="10" x2="82" y2="-68"/>
    </g>
  </g>
</svg>
