<svg xmlns="http://www.w3.org/2000/svg" viewBox="0 0 400 400" fill="none">
  <defs>
    <linearGradient id="dp-bg" x1="0" y1="0" x2="1" y2="1">
      <stop offset="0" stop-color="#e0e7ff"/>
      <stop offset="1" stop-color="#c7d2fe"/>
    </linearGradient>
  </defs>
  <rect width="400" height="400" fill="url(#dp-bg)"/>
  <g transform="translate(50 170)">
    <rect x="0" y="0" width="300" height="30" fill="#1f2937" rx="4"/>
    <rect x="0" y="30" width="300" height="70" fill="#f9fafb" stroke="#1f2937" stroke-width="2"/>
    <g fill="#1f2937">
      <rect x="22" y="30" width="16" height="40"/>
      <rect x="52" y="30" width="16" height="40"/>
      <rect x="102" y="30" width="16" height="40"/>
      <rect x="132" y="30" width="16" height="40"/>
      <rect x="162" y="30" width="16" height="40"/>
      <rect x="202" y="30" width="16" height="40"/>
      <rect x="232" y="30" width="16" height="40"/>
      <rect x="272" y="30" width="16" height="40"/>
    </g>
    <g stroke="#1f2937" stroke-width="1.2">
      <line x1="30" y1="30" x2="30" y2="100"/>
      <line x1="60" y1="30" x2="60" y2="100"/>
      <line x1="90" y1="30" x2="90" y2="100"/>
      <line x1="120" y1="30" x2="120" y2="100"/>
      <line x1="150" y1="30" x2="150" y2="100"/>
      <line x1="180" y1="30" x2="180" y2="100"/>
      <line x1="210" y1="30" x2="210" y2="100"/>
      <line x1="240" y1="30" x2="240" y2="100"/>
      <line x1="270" y1="30" x2="270" y2="100"/>
    </g>
    <circle cx="30" cy="15" r="4" fill="#10b981"/>
    <circle cx="50" cy="15" r="4" fill="#ef4444"/>
    <rect x="70" y="10" width="60" height="10" fill="#4338ca" rx="2"/>
  </g>
</svg>
