<svg xmlns="http://www.w3.org/2000/svg" viewBox="0 0 400 400" fill="none">
  <defs>
    <linearGradient id="eg-bg" x1="0" y1="0" x2="1" y2="1">
      <stop offset="0" stop-color="#fee2e2"/>
      <stop offset="1" stop-color="#fecaca"/>
    </linearGradient>
    <linearGradient id="eg-body" x1="0" y1="0" x2="1" y2="1">
      <stop offset="0" stop-color="#dc2626"/>
      <stop offset="1" stop-color="#7f1d1d"/>
    </linearGradient>
  </defs>
  <rect width="400" height="400" fill="url(#eg-bg)"/>
  <g transform="translate(220 210) rotate(25)">
    <path d="M-90 -20 Q-110 40 -70 85 Q-30 110 10 90 Q40 70 50 30 L90 -90 L70 -110 L30 -60 Q10 -30 -30 -25 Q-70 -30 -90 -20 Z" fill="url(#eg-body)" stroke="#450a0a" stroke-width="3"/>
    <rect x="70" y="-110" width="80" height="10" fill="#2d1a0e" transform="rotate(-20 70 -110)"/>
    <rect x="142" y="-142" width="28" height="18" fill="#2d1a0e" rx="2" transform="rotate(-20 142 -142)"/>
    <rect x="-30" y="20" width="50" height="12" fill="#fbbf24" stroke="#78350f" stroke-width="1.5"/>
    <rect x="-30" y="40" width="50" height="12" fill="#fbbf24" stroke="#78350f" stroke-width="1.5"/>
    <circle cx="-50" cy="60" r="5" fill="#1f2937"/>
    <circle cx="-35" cy="72" r="5" fill="#1f2937"/>
    <circle cx="-20" cy="82" r="5" fill="#1f2937"/>
  </g>
</svg>
