<svg xmlns="http://www.w3.org/2000/svg" viewBox="0 0 400 400" fill="none">
  <defs>
    <linearGradient id="sx-bg" x1="0" y1="0" x2="1" y2="1">
      <stop offset="0" stop-color="#fef3c7"/>
      <stop offset="1" stop-color="#fcd34d"/>
    </linearGradient>
    <linearGradient id="sx-body" x1="0" y1="0" x2="0" y2="1">
      <stop offset="0" stop-color="#fbbf24"/>
      <stop offset="1" stop-color="#b45309"/>
    </linearGradient>
  </defs>
  <rect width="400" height="400" fill="url(#sx-bg)"/>
  <g transform="translate(200 210)">
    <path d="M-30 -120 Q-15 -125 0 -120 L10 -100 L20 -50 L25 40 Q28 90 70 100 Q115 98 120 55 Q115 40 95 42"
          stroke="url(#sx-body)" stroke-width="26" fill="none" stroke-linecap="round"/>
    <ellipse cx="115" cy="50" rx="42" ry="32" fill="url(#sx-body)" stroke="#78350f" stroke-width="2"/>
    <ellipse cx="115" cy="50" rx="28" ry="20" fill="#1c1917"/>
    <rect x="-35" y="-140" width="30" height="22" fill="#1c1917" rx="4"/>
    <g fill="#78350f">
      <circle cx="10" cy="-70" r="4"/>
      <circle cx="16" cy="-40" r="4"/>
      <circle cx="22" cy="-10" r="4"/>
      <circle cx="26" cy="20" r="4"/>
      <circle cx="30" cy="50" r="4"/>
    </g>
  </g>
</svg>
