<svg xmlns="http://www.w3.org/2000/svg" viewBox="0 0 400 400" fill="none">
  <defs>
    <linearGradient id="sy-bg" x1="0" y1="0" x2="1" y2="1">
      <stop offset="0" stop-color="#f3e8ff"/>
      <stop offset="1" stop-color="#e9d5ff"/>
    </linearGradient>
  </defs>
  <rect width="400" height="400" fill="url(#sy-bg)"/>
  <g transform="translate(40 150)">
    <rect x="0" y="0" width="320" height="120" fill="#1f2937" rx="6"/>
    <rect x="10" y="15" width="300" height="35" fill="#111827" rx="3"/>
    <rect x="20" y="22" width="80" height="20" fill="#10b981" rx="2"/>
    <g fill="#a855f7">
      <circle cx="130" cy="32" r="10"/>
      <circle cx="160" cy="32" r="10"/>
      <circle cx="190" cy="32" r="10"/>
      <circle cx="220" cy="32" r="10"/>
      <circle cx="250" cy="32" r="10"/>
      <circle cx="280" cy="32" r="10"/>
    </g>
    <rect x="10" y="60" width="300" height="55" fill="#f9fafb" stroke="#111827" stroke-width="1.5"/>
    <g fill="#111827">
      <rect x="26" y="60" width="10" height="30"/>
      <rect x="46" y="60" width="10" height="30"/>
      <rect x="76" y="60" width="10" height="30"/>
      <rect x="96" y="60" width="10" height="30"/>
      <rect x="116" y="60" width="10" height="30"/>
      <rect x="146" y="60" width="10" height="30"/>
      <rect x="166" y="60" width="10" height="30"/>
      <rect x="196" y="60" width="10" height="30"/>
      <rect x="216" y="60" width="10" height="30"/>
      <rect x="236" y="60" width="10" height="30"/>
      <rect x="266" y="60" width="10" height="30"/>
      <rect x="286" y="60" width="10" height="30"/>
    </g>
    <g stroke="#111827" stroke-width="1">
      <line x1="30" y1="60" x2="30" y2="115"/>
      <line x1="50" y1="60" x2="50" y2="115"/>
      <line x1="70" y1="60" x2="70" y2="115"/>
      <line x1="90" y1="60" x2="90" y2="115"/>
      <line x1="110" y1="60" x2="110" y2="115"/>
      <line x1="130" y1="60" x2="130" y2="115"/>
      <line x1="150" y1="60" x2="150" y2="115"/>
      <line x1="170" y1="60" x2="170" y2="115"/>
      <line x1="190" y1="60" x2="190" y2="115"/>
      <line x1="210" y1="60" x2="210" y2="115"/>
      <line x1="230" y1="60" x2="230" y2="115"/>
      <line x1="250" y1="60" x2="250" y2="115"/>
      <line x1="270" y1="60" x2="270" y2="115"/>
      <line x1="290" y1="60" x2="290" y2="115"/>
    </g>
  </g>
</svg>
