<svg xmlns="http://www.w3.org/2000/svg" viewBox="0 0 400 400" fill="none">
  <defs>
    <linearGradient id="uk-bg" x1="0" y1="0" x2="1" y2="1">
      <stop offset="0" stop-color="#d1fae5"/>
      <stop offset="1" stop-color="#a7f3d0"/>
    </linearGradient>
    <linearGradient id="uk-body" x1="0" y1="0" x2="0" y2="1">
      <stop offset="0" stop-color="#d4a373"/>
      <stop offset="1" stop-color="#a0693a"/>
    </linearGradient>
  </defs>
  <rect width="400" height="400" fill="url(#uk-bg)"/>
  <g transform="translate(200 220) rotate(-15)">
    <path d="M0 -120 L-8 -70 L-8 -40 L-50 0 L-58 60 Q-58 100 0 108 Q58 100 58 60 L50 0 L8 -40 L8 -70 Z" fill="url(#uk-body)" stroke="#5c3a1f" stroke-width="2.5"/>
    <circle cx="0" cy="50" r="22" fill="#1f1410" stroke="#f5d99a" stroke-width="3"/>
    <rect x="-6" y="-70" width="12" height="90" fill="#3b2416"/>
    <rect x="-10" y="-140" width="20" height="30" fill="#3b2416" rx="2"/>
    <g stroke="#f5f5f4" stroke-width="1">
      <line x1="-4" y1="-138" x2="-4" y2="85"/>
      <line x1="-1.3" y1="-138" x2="-1.3" y2="85"/>
      <line x1="1.3" y1="-138" x2="1.3" y2="85"/>
      <line x1="4" y1="-138" x2="4" y2="85"/>
    </g>
  </g>
</svg>
